<svg xmlns="http://www.w3.org/2000/svg" xmlns:xlink="http://www.w3.org/1999/xlink" width="40" zoomAndPan="magnify" viewBox="0 0 30 30.000001" height="40" preserveAspectRatio="xMidYMid meet" version="1.2"><defs><clipPath id="4bbd404094"><path d="M 0.484375 0 L 29.515625 0 L 29.515625 29.03125 L 0.484375 29.03125 Z M 0.484375 0 "/></clipPath></defs><g id="ef10148202"><g clip-rule="nonzero" clip-path="url(#4bbd404094)"><path style=" stroke:none;fill-rule:nonzero;fill:#ffffff;fill-opacity:1;" d="M 19.988281 0 L 28.15625 0 C 28.910156 0 29.515625 0.605469 29.515625 1.359375 L 29.515625 9.527344 C 29.515625 10.078125 29.1875 10.574219 28.675781 10.785156 C 28.167969 10.996094 27.582031 10.882812 27.191406 10.488281 L 24.980469 8.277344 L 20.046875 13.210938 C 19.511719 13.746094 18.652344 13.746094 18.125 13.210938 L 16.308594 11.398438 C 15.777344 10.863281 15.777344 10.003906 16.308594 9.476562 L 21.242188 4.542969 L 19.027344 2.324219 C 18.632812 1.933594 18.519531 1.347656 18.730469 0.839844 C 18.941406 0.328125 19.441406 0 19.988281 0 Z M 10.011719 29.03125 L 1.84375 29.03125 C 1.089844 29.03125 0.484375 28.425781 0.484375 27.671875 L 0.484375 19.507812 C 0.484375 18.957031 0.8125 18.457031 1.324219 18.246094 C 1.832031 18.039062 2.417969 18.152344 2.808594 18.542969 L 5.019531 20.753906 L 9.953125 15.820312 C 10.488281 15.289062 11.347656 15.289062 11.875 15.820312 L 13.691406 17.636719 C 14.222656 18.167969 14.222656 19.03125 13.691406 19.558594 L 8.757812 24.492188 L 10.96875 26.703125 C 11.359375 27.09375 11.472656 27.675781 11.261719 28.1875 C 11.054688 28.699219 10.554688 29.027344 10.003906 29.027344 Z M 10.011719 29.03125 "/></g></g></svg>